:version 1.10
:name ASF
:units
  mass 1
  length 1
  angle deg
:documentation
  ASF file generated by Kaydara
:root
  axis xyz
  order  tx ty tz rx ry rz
  position 0 0 0
  orientation 0 0 0
:bonedata
  begin
    id 1
    name SpineDummy
    direction 0.999998 -0.00179978 1.38929e-006
    length 3.60008
    axis 0 0 0 xyz
  end
  begin
    id 2
    name Spine
    direction 0.964365 0.262802 0.0305839
    length 8.13928
    axis 1.33928 -1.75354 15.2838 xyz
    dof rx ry rz
  end
  begin
    id 3
    name Spine1
    direction 0.811168 0.572065 0.12144
    length 7.14954
    axis 2.2224 -6.9761 35.2157 xyz
    dof rx ry rz
  end
  begin
    id 4
    name Neck
    direction 0 0 0
    length 0
    axis 2.2224 -6.9761 35.2157 xyz
    dof rx ry rz
  end
  begin
    id 5
    name HeadDummy
    direction 0.810939 0.572387 0.121455
    length 3.55534
    axis 2.2224 -6.9761 35.2157 xyz
  end
  begin
    id 6
    name Head
    direction 0.998226 -0.000232542 0.0595419
    length 7.35666
    axis -3.03688 -3.41352 -0.0133467 xyz
    dof rx ry rz
  end
  begin
    id 7
    name R_ClavicleDummy
    direction 0.531669 -0.194489 -0.824319
    length 2.49392
    axis 2.2224 -6.9761 35.2157 xyz
  end
  begin
    id 8
    name R_Clavicle
    direction -0.155119 0.0480802 -0.986725
    length 4.485
    axis -54.2764 80.6538 162.779 xyz
    dof rx ry rz
  end
  begin
    id 9
    name R_UpperArm
    direction -0.955567 0.200068 -0.216484
    length 10.1122
    axis -72.9943 12.5026 168.175 xyz
    dof rx ry rz
  end
  begin
    id 10
    name R_Forearm
    direction -0.61433 0.385743 0.688332
    length 9.39148
    axis -117.015 -43.4982 147.875 xyz
    dof rx ry rz
  end
  begin
    id 11
    name R_Hand
    direction -0.699429 0.0170333 0.714499
    length 3.66324
    axis -45.0303 -36.7097 175.478 xyz
    dof rx ry rz
  end
  begin
    id 12
    name L_ClavicleDummy
    direction 0.40287 -0.36502 0.839319
    length 2.49392
    axis 2.2224 -6.9761 35.2157 xyz
  end
  begin
    id 13
    name L_Clavicle
    direction -0.231271 -0.0726419 0.970174
    length 4.485
    axis 18.4357 -75.9711 -162.563 xyz
    dof rx ry rz
  end
  begin
    id 14
    name L_UpperArm
    direction -0.917494 0.144359 0.370629
    length 10.1122
    axis 56.0417 -21.7544 171.058 xyz
    dof rx ry rz
  end
  begin
    id 15
    name L_Forearm
    direction -0.496786 0.615074 -0.612281
    length 9.39148
    axis 89.8094 37.7546 128.927 xyz
    dof rx ry rz
  end
  begin
    id 16
    name L_Hand
    direction -0.409932 0.64962 -0.640274
    length 3.66324
    axis -0.424369 32.133 128.52 xyz
    dof rx ry rz
  end
  begin
    id 17
    name L_ThighDummy
    direction -1.84081e-006 1.87549e-006 1
    length 3.13049
    axis 0 0 0 xyz
  end
  begin
    id 18
    name L_Thigh
    direction -0.947739 0.307978 0.083308
    length 17.9961
    axis 173.219 -4.77873 161.998 xyz
    dof rx ry rz
  end
  begin
    id 19
    name L_Calf
    direction -0.728814 -0.684427 0.0197583
    length 13.3367
    axis 167.331 -1.13214 -136.799 xyz
    dof rx ry rz
  end
  begin
    id 20
    name L_Foot
    direction -0.9028 0.418719 0.0981191
    length 5.8674
    axis 163.436 11.5135 -155.37 xyz
    dof rx ry rz
  end
  begin
    id 21
    name L_Toe0
    direction -0.35341 0.886259 0.299411
    length 4.75286
    axis 169.316 -17.4222 111.74 xyz
    dof rx ry rz
  end
  begin
    id 22
    name R_ThighDummy
    direction 9.32778e-007 -8.82053e-007 -1
    length 3.13049
    axis 0 0 0 xyz
  end
  begin
    id 23
    name R_Thigh
    direction -0.925064 0.37528 -0.0585023
    length 17.9961
    axis -178.698 3.35385 157.919 xyz
    dof rx ry rz
  end
  begin
    id 24
    name R_Calf
    direction -0.68969 -0.718776 -0.0876886
    length 13.3367
    axis -160.504 5.03065 -133.817 xyz
    dof rx ry rz
  end
  begin
    id 25
    name R_Foot
    direction -0.857405 0.418858 -0.299022
    length 5.8674
    axis -161.328 4.38911 -154.413 xyz
    dof rx ry rz
  end
  begin
    id 26
    name R_Toe0
    direction -0.100745 0.952789 -0.286433
    length 4.75286
    axis 171.683 16.6445 96.0359 xyz
    dof rx ry rz
  end
:hierarchy
  begin
    root SpineDummy L_ThighDummy R_ThighDummy
    SpineDummy Spine
    Spine Spine1
    Spine1 Neck
    Neck HeadDummy R_ClavicleDummy L_ClavicleDummy
    HeadDummy Head
    R_ClavicleDummy R_Clavicle
    R_Clavicle R_UpperArm
    R_UpperArm R_Forearm
    R_Forearm R_Hand
    L_ClavicleDummy L_Clavicle
    L_Clavicle L_UpperArm
    L_UpperArm L_Forearm
    L_Forearm L_Hand
    L_ThighDummy L_Thigh
    L_Thigh L_Calf
    L_Calf L_Foot
    L_Foot L_Toe0
    R_ThighDummy R_Thigh
    R_Thigh R_Calf
    R_Calf R_Foot
    R_Foot R_Toe0
  end

:SAMPLES-PER-SECOND 30
:FULLY-SPECIFIED
:DEGREES
23
root  0.616787 33.5816 -0.923652 -64.187 4.85007 86.3231
Spine  -1.97039 -8.06679 -15.4605
Spine1  -1.62924 7.87718 2.44893
Neck  3.97569e-016 0 -2.38542e-015
Head  -14.7997 2.86444 21.0433
R_Clavicle  0.424438 -22.3673 0.958256
R_UpperArm  23.1502 -9.4776 38.5251
R_Forearm  8.42431 -33.4726 20.9594
R_Hand  -0.556219 7.88539 -15.4297
L_Clavicle  -0.573484 19.0565 -1.10638
L_UpperArm  2.07502 5.31313 15.575
L_Forearm  -9.17226 15.5818 18.7784
L_Hand  -0.365583 2.90249 -4.79083
L_Thigh  -5.14675 -6.49631 -8.63012
L_Calf  4.15425 -2.94966 22.3332
L_Foot  2.26983 12.684 -2.63698
L_Toe0  0.747649 -0.364957 8.7242
R_Thigh  3.42616 1.17594 2.82047
R_Calf  -4.86866 1.7087 5.24225
R_Foot  1.82539 5.73375 -2.56588
R_Toe0  -1.81839 -0.273089 -17.3405
24
root  0.412205 34.1599 -1.55563 -63.4276 3.75992 86.5257
Spine  -3.40597 -8.14771 -14.5946
Spine1  -2.94844 9.54478 1.74666
Neck  3.97569e-016 0 -2.38542e-015
Head  -13.4073 1.66356 21.4063
R_Clavicle  0.412443 -21.4192 0.778532
R_UpperArm  27.1145 -10.9593 40.5739
R_Forearm  8.5249 -34.4208 21.493
R_Hand  -0.504767 8.03361 -15.0928
L_Clavicle  -0.49562 17.0514 -1.25062
L_UpperArm  1.83062 5.26726 12.8828
L_Forearm  -8.85113 13.5606 16.1642
L_Hand  -0.380466 2.77783 -5.0701
L_Thigh  -6.85438 -5.54817 -10.5019
L_Calf  2.14796 -3.11681 23.5715
L_Foot  1.0192 12.8019 -6.79908
L_Toe0  0.209869 -0.182144 7.24213
R_Thigh  1.64038 2.94694 3.0299
R_Calf  -6.45687 3.77089 11.7252
R_Foot  1.95595 6.26815 -2.3279
R_Toe0  -1.78854 -0.271786 -17.3236
25
root  0.117842 34.3876 -2.1597 -63.1055 2.7639 85.7874
Spine  -4.56013 -8.6834 -13.7545
Spine1  -3.98359 10.7902 1.30177
Neck  3.97569e-016 0 -2.38542e-015
Head  -11.9783 0.512221 21.4974
R_Clavicle  0.397369 -20.3967 0.667983
R_UpperArm  27.3783 -12.147 43.2273
R_Forearm  12.6432 -33.0325 21.5346
R_Hand  -0.529491 7.82794 -15.2022
L_Clavicle  -0.379391 14.2359 -1.42241
L_UpperArm  1.33462 5.29912 9.21567
L_Forearm  -8.91076 11.8105 13.9641
L_Hand  -0.41887 2.82332 -5.5629
L_Thigh  -9.38961 -5.60186 -13.1261
L_Calf  0.876433 -3.25456 24.612
L_Foot  0.772743 11.6827 -6.92652
L_Toe0  1.19924 -0.215641 2.89444
R_Thigh  -0.261684 2.94221 2.95663
R_Calf  -5.57469 6.06559 19.1621
R_Foot  2.10986 6.7825 -2.59001
R_Toe0  -1.78879 -0.271225 -17.3237
26
root  -0.213257 34.2957 -2.73392 -62.8627 2.24259 85.0101
Spine  -5.53399 -9.14543 -13.6212
Spine1  -4.88479 11.6557 0.969204
Neck  3.97569e-016 0 -2.38542e-015
Head  -10.801 -0.0531638 21.6022
R_Clavicle  0.390972 -20.0634 0.579166
R_UpperArm  24.3486 -12.5756 46.8824
R_Forearm  18.9553 -29.8575 21.2451
R_Hand  -0.588141 7.53244 -15.5502
L_Clavicle  -0.256715 11.4588 -1.57374
L_UpperArm  1.0294 4.63765 4.95682
L_Forearm  -9.3338 10.1745 11.9514
L_Hand  -0.47714 3.02771 -6.1932
L_Thigh  -12.1284 -5.81858 -16.1351
L_Calf  3.10746 -3.55318 26.8842
L_Foot  0.99804 10.3022 -5.25662
L_Toe0  3.49952 -0.510804 1.64487
R_Thigh  -2.00807 2.12857 3.16737
R_Calf  -3.19817 8.4336 27.2732
R_Foot  1.7919 5.31445 -3.77177
R_Toe0  -1.78932 -0.270856 -17.324
27
root  -0.525552 33.8968 -3.27649 -61.9362 1.96299 85.0069
Spine  -6.6911 -8.90407 -13.7883
Spine1  -6.10596 12.6361 0.314117
Neck  3.97569e-016 0 -2.38542e-015
Head  -9.66221 -0.553254 21.6746
R_Clavicle  0.391467 -20.1414 0.543577
R_UpperArm  19.79 -12.3074 51.1673
R_Forearm  25.4617 -25.7934 20.8601
R_Hand  -0.71928 7.64321 -16.6338
L_Clavicle  -0.208184 9.82225 -1.18964
L_UpperArm  1.55705 2.31269 0.172706
L_Forearm  -9.77622 8.42585 9.83842
L_Hand  -0.524954 3.09423 -6.76909
L_Thigh  -13.2746 -5.50436 -18.8868
L_Calf  6.30473 -4.01455 29.5542
L_Foot  1.78265 10.3002 -2.5665
L_Toe0  4.45971 -0.889047 4.72885
R_Thigh  -3.09978 1.33374 3.69015
R_Calf  -0.758684 10.6373 35.5888
R_Foot  1.01879 2.34277 -3.72606
R_Toe0  -1.79005 -0.270653 -17.3244
